<svg xmlns="http://www.w3.org/2000/svg" xmlns:xlink="http://www.w3.org/1999/xlink" id="Layer_1" x="0" y="0" version="1.1" viewBox="0 0 326.71 158.74" style="enable-background:new 0 0 326.71 158.74" xml:space="preserve"><style type="text/css">.st6{fill:#fff}</style><switch><g><g><g><path d="M98.94,131.83h-1.03v-1.46c0-0.4,0.15-0.79,0.43-1.08l0.6-0.64V131.83z" class="st6"/><path d="M91.76,139.2c-0.59-1.78-2.01-3.2-3.79-3.79l-2.79-0.93l0.33-0.98l2.79,0.93c2.09,0.69,3.75,2.35,4.44,4.44 L91.76,139.2z" class="st6"/><path d="M84.42,134.94c-0.96-0.92-2.21-1.47-3.54-1.55l0.07-1.03c1.56,0.1,3.05,0.75,4.18,1.84L84.42,134.94z" class="st6"/><rect width="9.83" height="1.03" x="82.42" y="137.49" class="st6"/><rect width="4.72" height="1.03" x="78.23" y="136.46" class="st6"/><g><path d="M64.47,31.75l-0.36-0.36c-1.41-1.4-2.33-3.26-2.61-5.23c-0.41-2.93-0.41-5.88,0-8.78 c0.28-1.97,1.2-3.82,2.6-5.23l0.36-0.36l2.79,2.78l-0.36,0.36c-0.56,0.56-0.88,1.33-0.88,2.12v9.44c0,0.79,0.32,1.56,0.88,2.12 l0.36,0.36L64.47,31.75z M64.49,13.24c-1.05,1.19-1.74,2.69-1.96,4.27c-0.39,2.81-0.39,5.66,0,8.48 c0.22,1.6,0.91,3.1,1.96,4.29l1.34-1.34c-0.54-0.7-0.84-1.57-0.84-2.46v-9.44c0-0.89,0.3-1.76,0.84-2.46L64.49,13.24z" class="st6"/><path d="M48.53,25.36h-0.51c-1.99,0-3.6-1.62-3.6-3.6s1.62-3.6,3.6-3.6h0.51v2.06h7.88l0.15,0.14 c1.26,1.21,1.03,2.47,1.02,2.53l-0.08,0.41h-8.96V25.36z M47.5,19.24c-1.17,0.24-2.06,1.28-2.06,2.52 c0,1.24,0.89,2.28,2.06,2.52v-2.01h9.04c-0.05-0.27-0.2-0.64-0.55-1.03H47.5V19.24z" class="st6"/><path d="M66.74,41.99l-4.76-2.38l-1.19-4.77l7.92-3.4l2.58,2.58L66.74,41.99z M62.86,38.9l3.47,1.73L70,34.19 l-1.53-1.53l-6.48,2.78L62.86,38.9z" class="st6"/><rect width="9.48" height="1.03" x="61.28" y="35.65" class="st6" transform="matrix(0.7593 -0.6508 0.6508 0.7593 -7.6422 51.6697)"/><polygon points="76.19 60.53 72.29 46.81 66.54 41.02 67.27 40.29 73.21 46.27 77.18 60.24" class="st6"/><path d="M80.36,41.79c-1.33-0.05-2.62-0.32-3.68-0.67c-0.41-0.14-0.73-0.44-0.9-0.84 c-0.16-0.4-0.15-0.84,0.04-1.23l0.67-1.35h0.32c6.96,0,7.72-3.96,7.72-5.66h1.03c0,1.55-0.61,6.55-8.43,6.68l-0.39,0.78 c-0.06,0.12-0.06,0.25-0.01,0.37c0.05,0.12,0.15,0.21,0.27,0.26c1.22,0.41,2.88,0.65,4.44,0.65 C81.45,40.79,81.31,41.82,80.36,41.79z" class="st6"/><path d="M54.7,20.73h-1.03c0-1.45,0.98-2.7,2.39-3.06l1.98-0.5l1.25-1.25l2.93,2.34l-0.64,0.8l-2.21-1.77l-0.8,0.8 l-2.26,0.56C55.36,18.91,54.7,19.76,54.7,20.73z" class="st6"/><path d="M56.77,27c-1.46-0.59-2.53-1.87-2.93-3.46l-0.16-0.62l1-0.25l0.16,0.62c0.46,1.83,2.09,3.1,3.97,3.1 C58.82,26.39,58.35,27.64,56.77,27z" class="st6"/><path d="M59.84,22.28h-2.92v-1.03h1.89v0c0-0.93-0.22-1.86-0.64-2.69l-0.34-0.68l0.92-0.46l0.45,0.89 c0.42,0.84,0.64,1.76,0.64,2.69V22.28z" class="st6"/><path d="M72.7,123.73l-0.46-0.92c-2.05-4.11-3.14-8.71-3.14-13.3V73.71h7.2v35.79c0,4.59-1.09,9.19-3.14,13.3 L72.7,123.73z M70.13,74.74v34.76c0,4.08,0.89,8.16,2.57,11.88c1.69-3.72,2.57-7.8,2.57-11.88V74.74H70.13z" class="st6"/><rect width="6.17" height="1.03" x="69.62" y="79.88" class="st6"/><path d="M97.86,75.46L92.8,72.6c-9.56-5.39-14.49-16.23-12.28-26.97l0.07-0.33l20.78-4.42l0.2,0.27 c6.39,8.92,6.29,20.83-0.25,29.64L97.86,75.46z M81.47,46.17c-1.95,10.2,2.77,20.43,11.84,25.54l4.27,2.41l2.92-3.94 c6.2-8.36,6.36-19.63,0.43-28.15L81.47,46.17z" class="st6"/><path d="M92.79,67.95l0.47-1.8l-0.51-2.4l-3.4,0.72l-1.45,1.16l-1.42-6.66l1.8,0.47l3.4-0.72l-0.64-3.02l-3.4,0.72 l-1.46,1.16l-1.42-6.66l1.8,0.47l3.4-0.72l-0.51-2.4l-1.16-1.46l6.66-1.42l-0.47,1.8L95,49.6l3.4-0.72l1.46-1.16l1.42,6.66 l-1.8-0.47l-3.4,0.72l0.64,3.02l3.4-0.72l1.45-1.16l1.42,6.66l-1.8-0.47l-3.4,0.72l0.51,2.4l1.16,1.45L92.79,67.95z M93.54,62.53l0.77,3.64L94.2,66.6l3.4-0.72l-0.27-0.34l-0.77-3.64l4.65-0.99l0.42,0.11l-0.72-3.4l-0.34,0.27l-4.65,0.99 l-1.07-5.03l4.65-0.99l0.42,0.11l-0.72-3.4l-0.34,0.27l-4.65,0.99l-0.77-3.64l0.11-0.43l-3.4,0.72l0.27,0.34l0.77,3.64 l-4.65,0.99l-0.42-0.11l0.72,3.4l0.34-0.27l4.65-0.99l1.07,5.03l-4.65,0.99l-0.42-0.11l0.72,3.4l0.34-0.27L93.54,62.53z" class="st6"/><path d="M82.51,66.25c-0.25,0-0.49-0.04-0.73-0.12l-3.9-1.3c-0.94-0.31-1.58-1.19-1.58-2.19h1.03 c0,0.55,0.35,1.04,0.87,1.21l3.9,1.3c0.46,0.15,0.96,0.04,1.31-0.31l0.87-0.87l0.73,0.73l-0.87,0.87 C83.7,66.02,83.11,66.25,82.51,66.25z" class="st6"/><path d="M74.24,74.31l-1.01-0.17l0.33-2c0.47-2.83,1.8-5.41,3.83-7.44L78,64.09l0.73,0.73l-0.61,0.61 c-1.88,1.88-3.1,4.26-3.54,6.88L74.24,74.31z" class="st6"/><path d="M76.3,74.31l-1.01-0.17l0.33-2c0.47-2.83,1.8-5.41,3.83-7.44l0.09-0.09l0.73,0.73l-0.09,0.09 c-1.88,1.88-3.1,4.26-3.54,6.88L76.3,74.31z" class="st6"/><path d="M64.96,80.58l-0.96-0.36c2.03-5.42,5.94-9.96,11-12.77l0.52-0.29l0.5,0.9l-0.52,0.29 C70.65,71.04,66.9,75.39,64.96,80.58z" class="st6"/><rect width="16.27" height="1.03" x="47.6" y="92.74" class="st6" transform="matrix(0.5693 -0.8222 0.8222 0.5693 -52.6673 85.9886)"/><path d="M66.45,91.49l-0.35-0.52c-1.92-2.88-5.83-3.89-5.87-3.9l-0.23-0.06L59.9,86.8 c-0.04-0.09-1.08-2.19-1.08-4.34v-0.21l0.15-0.15c1.1-1.1,3.28-2.21,5.33-2.21h0.45l2.15,3.23l3,2l-0.57,0.86l-3.23-2.2 l-1.9-2.86c-1.63,0.03-3.4,0.9-4.35,1.76c0.05,1.48,0.64,2.94,0.88,3.47c0.88,0.26,3.87,1.28,5.8,3.67 c0.24-0.44,0.52-1.18,0.52-2.21v-0.51h0.51c0.66,0,1.45-0.63,1.69-0.88l0.73,0.73c-0.1,0.1-0.93,0.9-1.92,1.12 C67.92,90,66.94,91,66.9,91.05L66.45,91.49z" class="st6"/><path d="M64.19,80.82c-0.05-0.04-1.34-0.92-2.2-2.2c-2.13-3.2-1.39-8.81,1.64-12.52c1.14-1.39,2.89-2.13,4.69-1.99 c1.79,0.15,3.4,1.17,4.29,2.74c0.4,0.7,0.61,1.49,0.61,2.29v0.39h-1.03v-0.39c0-0.62-0.16-1.24-0.47-1.78 c-0.74-1.29-2.01-2.1-3.48-2.22c-1.47-0.12-2.87,0.46-3.8,1.61c-2.72,3.33-3.45,8.5-1.58,11.3c0.74,1.11,1.91,1.91,1.92,1.92 L64.19,80.82z" class="st6"/><rect width="1.03" height="2.41" x="89.68" y="70.28" class="st6"/><path d="M78.13,78.77l-0.57-0.86l3.22-2.14h0.16c2.48,0,6.69-0.76,6.69-3.6h1.03c0,3.15-3.77,4.59-7.56,4.63 L78.13,78.77z" class="st6"/><path d="M77.99,86.04l-0.28-0.99c5.29-1.51,13.14-5.27,14.04-8.89c0.09-0.36,0.21-1.29-0.6-2.13 C90.14,73,87.08,71.6,77.96,73.7l-0.23-1c9.13-2.11,12.73-0.83,14.15,0.62c0.82,0.83,1.14,1.99,0.87,3.1 C91.69,80.65,83.13,84.57,77.99,86.04z" class="st6"/><path d="M85.36,86c-0.14-1.4-0.37-2.44-0.7-3.16l0.94-0.42c0.37,0.83,0.63,1.97,0.78,3.48L85.36,86z" class="st6"/><path d="M90,99.43h-2.14l-0.15-0.23c-0.09-0.13-2.14-3.26-2.14-7.49c0-0.81-0.01-1.59-0.02-2.34l1.03-0.02 c0.02,0.75,0.02,1.54,0.02,2.36c0,3.28,1.38,5.92,1.83,6.69h0.94l0.24-0.49c-0.5-0.84-1.98-3.64-1.98-7.23 c0-0.44,0-0.87-0.01-1.3l1.03-0.01c0,0.43,0.01,0.86,0.01,1.31c0,3.9,1.95,6.89,1.97,6.92l0.16,0.25L90,99.43z" class="st6"/><path d="M87.49,85.78c-0.14-1.87-0.4-3.19-0.8-4.04l0.93-0.44c0.46,0.98,0.75,2.38,0.9,4.41L87.49,85.78z" class="st6"/><path d="M111.38,90.94c-4,0-7.65-3.99-9.75-6.28l-0.1-0.1c-3.13-3.41-6.99-5.6-10.34-5.84l0.08-1.03 c3.6,0.26,7.72,2.57,11.02,6.17l0.1,0.1c2.44,2.67,6.53,7.13,10.63,5.66c0.59-0.21,0.96-0.49,1.03-0.78 c0.08-0.32-0.19-0.68-0.36-0.86c-0.31-0.34-0.82-0.79-1.42-1.3c-2.68-2.34-7.17-6.27-7.17-11.79c0-2.9,2.12-5.05,2.21-5.14 l0.88-0.88l0,1.24c0,0.03,0.02,2.48,0.96,4.43c-0.01-3.35,0.58-10.27,5.64-11.11l0.77-0.13l-0.73,2.92 c-0.8,3.21-0.01,6.64,2.43,10.48c1.02,1.62,1.79,2.92,2.32,3.86c0.58,1.04-0.02,2.12-0.02,2.12c-0.01-0.02-1.05-2.08-3.17-5.43 c-2.59-4.1-3.43-7.79-2.55-11.28l0.33-1.31c-4.75,1.77-3.93,11.48-3.92,11.58l0.13,1.41l-1-1c-1.43-1.43-1.93-3.71-2.11-5.17 c-0.53,0.8-1.13,2.02-1.13,3.41c0,5.06,4.27,8.79,6.81,11.02c0.62,0.54,1.15,1,1.5,1.38c0.53,0.58,0.75,1.22,0.6,1.81 c-0.16,0.66-0.73,1.16-1.68,1.51C112.7,90.83,112.03,90.94,111.38,90.94z" class="st6"/><path d="M82.44,139.23l-0.96-0.38c1.37-3.43,3.95-6.24,7.26-7.89l0.87-0.44c1.48-0.74,2.71-1.89,3.54-3.32 l3.42-5.86c1.2-2.05,0.51-4.72-1.52-5.94l-8.77-5.26c-1.74-1.05-3.03-2.69-3.61-4.64l-2.24-7.46c0,0,0.85-0.44,1.23,0.53 l1.99,6.63c0.51,1.7,1.63,3.14,3.15,4.06l8.77,5.26c2.52,1.51,3.36,4.8,1.88,7.34l-3.42,5.86c-0.94,1.6-2.31,2.89-3.97,3.72 l-0.87,0.44C86.12,133.42,83.72,136.03,82.44,139.23z" class="st6"/><path d="M75.81,102.45l-0.05-1.03c2.76-0.13,4.82-0.46,6.06-0.72l0.21,1.01C80.2,102.09,78.05,102.35,75.81,102.45 z" class="st6"/><path d="M69.59,102.4c-3.91-0.24-7.95-0.86-12.02-1.85l0.24-1c4.01,0.97,7.99,1.59,11.84,1.82L69.59,102.4z" class="st6"/><path d="M78.18,104.49c-0.41,0-0.8-0.16-1.09-0.45l-1.67-1.67l0.73-0.73l1.67,1.67c0.12,0.12,0.29,0.17,0.47,0.14 l4.12-0.82l0.2,1.01l-4.12,0.82C78.39,104.48,78.29,104.49,78.18,104.49z" class="st6"/><path d="M92.76,140.58H81.45v-1.03h-4.11l0.03-1.71c0.04-0.13,1.09-3.23,3.21-5.34c2.16-2.16,5.32-4.23,7.33-5.24 c1.9-0.95,5.86-8.01,5.93-8.82c0.05-1.38-0.27-3.94-3-5.58l0.53-0.88c3.18,1.91,3.56,4.89,3.5,6.5 c-0.05,1.33-4.31,8.61-6.49,9.7c-1.95,0.97-4.99,2.97-7.07,5.05c-1.77,1.78-2.77,4.39-2.94,4.87v0.43h4.11v1.03h9.26v-2.72 c0-1.34,1.09-2.42,2.42-2.42c0.92,0,1.75,0.51,2.17,1.34l0.16,0.33c0.92-1.15,1.42-2.57,1.42-4.06v-0.33l8.86-13.78 c0.23-0.36,0.3-0.8,0.2-1.21l-0.72-2.87c-1.28-0.06-2.54-0.44-3.64-1.1c-1-0.6-1.71-1.6-1.95-2.74 c-0.24-1.14,0.02-2.34,0.7-3.29l2.79-3.89c1.33-1.86,2.03-4.06,2.02-6.35L106.13,91l2.38,3.65c1.71,2.62,4.13,4.65,7,5.89 c1.92,0.82,4.1,0.76,5.97-0.18c0.65-0.32,1.2-0.83,1.61-1.44c-0.98,0.34-2.02,0.52-3.06,0.52h-1.86l1.59-0.96 c3.08-1.85,5.16-5.09,5.56-8.66l0.29-2.59c-0.48,0.2-0.93,0.57-1.1,0.74l-0.88,0.87l0-1.23c0-3.55-1.77-6.02-3.48-8.4 c-0.91-1.27-1.78-2.48-2.32-3.79c-0.19,0.45-0.37,1.08-0.37,1.9h-1.03c0-2.24,1.13-3.4,1.18-3.45l0.64-0.64l0.22,0.88 c0.39,1.54,1.42,2.98,2.51,4.5c1.57,2.18,3.33,4.63,3.63,7.98c0.44-0.27,1-0.53,1.59-0.53h0.57l-0.43,3.87 c-0.36,3.21-1.96,6.18-4.4,8.25c0.61-0.15,1.2-0.36,1.75-0.64l1.3-0.65l-0.37,1.16c-0.45,1.42-1.43,2.59-2.7,3.23 c-2.14,1.08-4.63,1.15-6.84,0.21c-3.06-1.31-5.64-3.48-7.45-6.27l-0.47-0.71l0.01,1.95c0.02,2.51-0.75,4.92-2.21,6.96 l-2.79,3.89c-0.52,0.73-0.71,1.61-0.53,2.48c0.18,0.88,0.7,1.61,1.47,2.07c1.05,0.63,2.25,0.96,3.47,0.96h0.4l0.15,0.43 l0.8,3.21c0.17,0.68,0.05,1.42-0.33,2.01l-8.7,13.55c0,2.01-0.78,3.91-2.21,5.33l-0.5,0.5l-0.82-1.64 c-0.24-0.47-0.72-0.77-1.25-0.77c-0.77,0-1.39,0.62-1.39,1.39V140.58z" class="st6"/><path d="M68.07,95.32h-4.22v-1.03h3.24c0.24-1.17,1.28-2.06,2.52-2.06v1.03c-0.85,0-1.54,0.69-1.54,1.54V95.32z" class="st6"/><path d="M42.42,97.37h-1.35c-0.98,0-1.88-0.49-2.43-1.3l-5.5-8.25l-1.57-3.52c-0.46-1.03-1.4-1.72-2.52-1.83 c-1.12-0.11-2.18,0.35-2.85,1.26l-4.29,5.9l-0.83-0.6l4.29-5.9c0.88-1.21,2.29-1.85,3.79-1.68c1.49,0.16,2.74,1.07,3.35,2.44 l1.53,3.45l5.46,8.17c0.35,0.53,0.94,0.84,1.57,0.84h1.35c0.09,0,0.17-0.05,0.22-0.14c0.84-1.48,2.19-3.1,4.08-3.76 c1.23-0.43,1.3,0.81,1.3,0.81c-1.75,0-3.51,1.73-4.48,3.45C43.3,97.12,42.87,97.37,42.42,97.37z" class="st6"/><path d="M18.19,95.14c-0.33-0.38-0.52-0.86-0.52-1.37c0-1.13,0.92-2.06,2.06-2.06c0.52,0,1.01,0.2,1.39,0.54 c0.3-0.66,0.35-1.42,0.11-2.13l-0.27-0.8c-0.13-0.4-0.2-0.88-0.2-1.25c0-0.5,0.48-0.99,1.03-0.99v0.99 c0,0.31,0.05,0.63,0.15,0.93l0.27,0.8c0.42,1.27,0.18,2.65-0.65,3.7l-0.54,0.68l-0.34-0.8c-0.16-0.38-0.53-0.63-0.95-0.63 c-0.57,0-1.03,0.46-1.03,1.03c0,0.25,0.09,0.49,0.26,0.68L18.19,95.14z" class="st6"/><path d="M15.1,105.82l-1.51-1.51l-1.13-6.8c-0.63-3.77,0.41-7.63,2.84-10.58l9.56-11.6 c0.84-1.02,2.08-1.61,3.41-1.61h2.52c1.32,0,2.57,0.59,3.41,1.61l4.05,4.93c0.49,0.59,1.13,1.05,1.85,1.31 c2.54,0.92,4.07,3.53,3.62,6.19c0,0-0.32,1.48-1.35,1.82l0.33-1.99c0.36-2.18-0.88-4.31-2.96-5.06 c-0.9-0.32-1.69-0.89-2.3-1.62l-4.05-4.93c-0.64-0.78-1.6-1.23-2.61-1.23h-2.52c-1.01,0-1.97,0.45-2.61,1.23l-9.56,11.6 c-2.02,2.45-2.99,5.57-2.74,8.7l5.33-2.07l4.39,3.65L15.1,105.82z M14.55,103.81l0.55,0.55l6.44-6.44l-3.06-2.54l-5.01,1.95 c0,0,0,0,0,0L14.55,103.81z" class="st6"/><path d="M36.99,79.8l-0.4-0.95c7.31-3.09,20.01-3.09,24.79-3.09v1.03C56.66,76.8,44.12,76.8,36.99,79.8z" class="st6"/><path d="M35.83,78.32l-0.46-0.92l1.1-0.55c7.33-3.14,20.04-3.14,24.83-3.14v1.03c-4.28,0-17.29,0-24.39,3.04 L35.83,78.32z" class="st6"/><path d="M37.73,65.48c-1.42,0-2.57-1.15-2.57-2.57c0-1.42,1.15-2.57,2.57-2.57s2.57,1.15,2.57,2.57 C40.3,64.33,39.15,65.48,37.73,65.48z M37.73,61.37c-0.85,0-1.54,0.69-1.54,1.54c0,0.85,0.69,1.54,1.54,1.54 s1.54-0.69,1.54-1.54C39.27,62.06,38.58,61.37,37.73,61.37z" class="st6"/><path d="M33.99,75.69l-0.86-0.57l4.43-6.69c1.18-1.78,2.92-3.15,4.93-3.87l1.06-2.39l0.94,0.42l-1.24,2.81 l-0.22,0.07c-1.88,0.63-3.52,1.88-4.61,3.54L33.99,75.69z" class="st6"/><path d="M10.72,91.32l-1.34-2.68l3.82-8.39c0.98-2.15,2.57-3.93,4.59-5.15l10.26-6.16c1.53-0.92,3.4-0.99,5-0.19 c1.23,0.62,2.41,1.36,3.49,2.21l-0.64,0.81c-1.03-0.81-2.15-1.52-3.32-2.1c-1.28-0.64-2.78-0.58-4.01,0.15l-10.26,6.16 c-1.85,1.11-3.3,2.73-4.19,4.69l-3.61,7.95l0.72,1.44l2.72-0.91l0.33,0.98L10.72,91.32z" class="st6"/><path d="M17.27,85.21c-1.2-1.32-2.96-1.93-4.72-1.64l-0.17-1.01c2.1-0.35,4.22,0.38,5.65,1.96L17.27,85.21z" class="st6"/><path d="M24.53,77.78l-0.49-0.98l0.92-0.46l0.89,1.78C25.84,78.11,24.97,78.51,24.53,77.78z" class="st6"/><path d="M43,53.41c-0.47,0-0.94-0.04-1.41-0.11c-0.3-0.05-0.65-1.18-0.65-1.18c2.54,0.63,5.01,0.12,7.17-1.5 c0.73-0.55,1.11-0.58,1.73-0.58c0,0,0.5,0,0.76,0c0.53,0,1.02,0.48,1.02,1.03h-1.78c-0.47,0-0.61,0-1.11,0.37 C47,52.74,45.02,53.41,43,53.41z" class="st6"/><path d="M46.16,59.54l-0.92-0.46l0.27-0.53c0.98-1.95,1.19-4.18,0.6-6.29l0.99-0.28c0.66,2.35,0.42,4.84-0.67,7.02 L46.16,59.54z" class="st6"/><path d="M28.99,52.62c0-0.65,0.38-1.2,0.95-1.43c0.56-0.24,1.26-0.1,1.68,0.33c0.44,0.43,0.57,1.12,0.33,1.68 c-0.23,0.57-0.76,0.95-1.42,0.95c-0.52-0.53,0.4-1.15,0.48-1.34c0.08-0.19,0.03-0.42-0.11-0.56c-0.14-0.15-0.37-0.19-0.56-0.11 C30.14,52.22,29.5,53.13,28.99,52.62z" class="st6"/><path d="M39.35,36.24c-1.3-0.52-2.14-1.76-2.14-3.17v-0.71l3.76,1.25l-0.33,0.98l-2.29-0.76 c0.22,0.65,0.71,1.19,1.37,1.46L39.35,36.24z" class="st6"/><path d="M38.65,39.26c-0.78-0.39-1.28-0.67-2.31-1.7l-0.44-0.44l0.52-0.35c1.68-1.12,3.73-1.9,6.08-2.31l0.18,1.01 c-1.96,0.34-3.69,0.95-5.14,1.81c0.61,0.56,0.98,0.76,1.58,1.06L38.65,39.26z" class="st6"/><path d="M54.44,38.09c0.26-0.19,0.51-0.41,0.74-0.64c0.23-0.23,0.46-0.5,0.65-0.75l0.21,0.78 c-0.6-0.24-1.27-0.44-1.93-0.58c-0.66-0.14-1.33-0.22-1.98-0.21l-0.52,0.01v-0.52v-1.03l0.4,0.5c-0.97-0.2-1.99-0.32-3-0.41 C48,35.15,47,35.12,45.97,35.14l-0.01-1.03c1.04-0.08,2.1-0.07,3.15-0.01c1.06,0.09,2.09,0.21,3.16,0.42l0.48,0.1l0.01,0.52 c0.01,0.34-0.01,0.69-0.02,1.03l-0.62-0.61c0.77,0.01,1.51,0.12,2.22,0.29c0.72,0.17,1.4,0.39,2.1,0.69l0.63,0.28l-0.42,0.5 c-0.26,0.3-0.52,0.55-0.85,0.77C55.25,38.44,54.44,38.09,54.44,38.09z" class="st6"/><path d="M121.85,91.25c1.45-0.73,1.77-3.63,1.77-4.68h1.03c0,0.14,0.11,2.74-1.06,4.36 C122.95,91.83,121.85,91.25,121.85,91.25z" class="st6"/><path d="M78.6,60.22l-0.98-0.33c0.24-0.72,0.78-1.3,1.48-1.58c0.7-0.29,1.49-0.26,2.16,0.08l1.07,0.53l-0.46,0.92 l-1.07-0.53c-0.41-0.2-0.89-0.22-1.31-0.05C79.07,59.44,78.75,59.79,78.6,60.22z" class="st6"/><path d="M69.64,59.36c-0.36-1.51-0.68-2.84-1.33-3.79c0.38-0.26,0.62-0.51,0.64-0.52l0.36-0.36l-0.36-0.36 c-0.25-0.25-0.45-0.77-0.68-1.32c-0.23-0.59-0.49-1.23-0.88-1.82c0.22-0.1,0.44-0.26,0.68-0.52l0.37-0.4l-0.42-0.34 c-0.86-0.7-1.16-1.63-1.45-2.52c-0.27-0.84-0.58-1.76-1.41-2.2c-2.59-5.29-8.08-7.68-9.16-8.11l-0.38,0.96 c0.95,0.37,5.45,2.38,8.03,6.54c0.35,0.57,0.31,1.36,0.31,1.36c1.02,0,1.24,0.54,1.64,1.77c0.26,0.79,0.57,1.75,1.31,2.56 c-0.12,0.04-0.26,0.04-0.45,0.03l-1.3-0.04l0.92,0.92c0.6,0.6,0.94,1.45,1.24,2.2c0.18,0.46,0.35,0.88,0.56,1.23 c-0.16,0.12-0.36,0.26-0.58,0.37l-0.62,0.33l0.5,0.5c0.72,0.73,1.06,2.15,1.45,3.79c0.16,0.67,0.33,1.38,0.54,2.13l0.99-0.28 C69.96,60.71,69.79,60.01,69.64,59.36z" class="st6"/><path d="M89.14,35.08c-1.23,0.29-2.34-0.54-2.52-1.67l-1.51-0.75c-1.48-0.74-3.1-1.12-4.75-1.12H76.8l4.56-5.87 l6.84,5.4c0.15-0.03,0.3-0.05,0.45-0.05c1.28,0,2.28,1.17,2.01,2.49C90.51,34.27,89.89,34.9,89.14,35.08z M78.9,30.51h1.7 c1.65,0,3.28,0.38,4.75,1.12l2.26,1.13v0.32c0,0.57,0.46,1.03,1.03,1.03c0.57,0,1.03-0.46,1.03-1.03c0-0.7-0.76-1.21-1.4-0.96 L88,32.23l-6.47-5.11L78.9,30.51z" class="st6"/><path d="M75.79,78.86h-1.03c-0.85,0-1.54-0.69-1.54-1.54c0-0.85,0.69-1.54,1.54-1.54h1.03v1.03h-1.03 c-0.28,0-0.51,0.23-0.51,0.51c0,0.28,0.23,0.51,0.51,0.51h1.03V78.86z" class="st6"/><path d="M70.65,78.86h-1.03v-1.03h1.03c0.28,0,0.51-0.23,0.51-0.51c0-0.28-0.23-0.51-0.51-0.51h-1.03v-1.03h1.03 c0.85,0,1.54,0.69,1.54,1.54C72.19,78.16,71.5,78.86,70.65,78.86z" class="st6"/><rect width="3.38" height="1.03" x="60.27" y="29.98" class="st6" transform="matrix(0.9496 -0.3136 0.3136 0.9496 -6.4359 20.9696)"/><g><path d="M45.96,45.94c-1.42,0-2.57-1.15-2.57-2.57c0-1.42,1.15-2.57,2.57-2.57c1.42,0,2.57,1.15,2.57,2.57 C48.53,44.78,47.38,45.94,45.96,45.94z M45.96,41.82c-0.85,0-1.54,0.69-1.54,1.54c0,0.85,0.69,1.54,1.54,1.54 c0.85,0,1.54-0.69,1.54-1.54C47.5,42.51,46.81,41.82,45.96,41.82z" class="st6"/></g><g><path d="M36.7,54.17c-1.42,0-2.57-1.15-2.57-2.57c0-1.42,1.15-2.57,2.57-2.57c1.42,0,2.57,1.15,2.57,2.57 C39.27,53.01,38.12,54.17,36.7,54.17z M36.7,50.05c-0.85,0-1.54,0.69-1.54,1.54c0,0.85,0.69,1.54,1.54,1.54 c0.85,0,1.54-0.69,1.54-1.54C38.24,50.74,37.55,50.05,36.7,50.05z" class="st6"/></g><polygon points="34 57.85 32.93 56.79 35.6 53.24 36.42 53.85 34.29 56.69 34.72 57.12" class="st6"/><rect width="1.03" height="9.7" x="62.93" y="80.18" class="st6" transform="matrix(0.53 -0.848 0.848 0.53 -42.2842 93.7648)"/><path d="M49.04,102.52c-1.42,0-2.57-1.15-2.57-2.57s1.15-2.57,2.57-2.57c1.42,0,2.57,1.15,2.57,2.57 S50.46,102.52,49.04,102.52z M49.04,98.4c-0.85,0-1.54,0.69-1.54,1.54s0.69,1.54,1.54,1.54c0.85,0,1.54-0.69,1.54-1.54 S49.89,98.4,49.04,98.4z" class="st6"/><rect width="1.03" height="2.3" x="51.62" y="99.31" class="st6" transform="matrix(0.4472 -0.8944 0.8944 0.4472 -61.0364 102.1583)"/><path d="M49.61,106.35c-0.05-0.09-1.13-2.31,0-4.57l0.09-0.16l0.89,0.51l-0.08,0.14c-0.89,1.78,0,3.61,0.01,3.63 L49.61,106.35z" class="st6"/><rect width="5.14" height="1.03" x="65.5" y="80.91" class="st6" transform="matrix(0.5998 -0.8001 0.8001 0.5998 -37.9111 87.0514)"/><path d="M40.3,82.01l-1.03-0.03c0.03-1.07,0.23-2.68,1.61-4.38l0.8,0.65C40.5,79.71,40.33,81.09,40.3,82.01z" class="st6"/><g><path d="M96.36,94.29c-1.42,0-2.57-1.15-2.57-2.57s1.15-2.57,2.57-2.57c1.42,0,2.57,1.15,2.57,2.57 S97.78,94.29,96.36,94.29z M96.36,90.17c-0.85,0-1.54,0.69-1.54,1.54c0,0.85,0.69,1.54,1.54,1.54c0.85,0,1.54-0.69,1.54-1.54 C97.91,90.86,97.22,90.17,96.36,90.17z" class="st6"/></g><g><path d="M87.11,90.17c-1.42,0-2.57-1.15-2.57-2.57s1.15-2.57,2.57-2.57s2.57,1.15,2.57,2.57 S88.52,90.17,87.11,90.17z M87.11,86.06c-0.85,0-1.54,0.69-1.54,1.54s0.69,1.54,1.54,1.54c0.85,0,1.54-0.69,1.54-1.54 S87.96,86.06,87.11,86.06z" class="st6"/></g><path d="M103.1,118.23c0.45-0.9,0.47-1.84,0.05-2.52c-0.34-0.55-0.92-0.85-1.64-0.85l-0.16-0.03 c-0.11-0.04-2.59-0.73-3.71-3.5c-0.59-1.47,0.25-2.26,0.25-2.26c0.87,3.48,3.26,4.58,3.71,4.76c1.03,0.03,1.91,0.51,2.42,1.34 c0.25,0.41,0.39,0.87,0.32,1.36C104.19,117.74,103.1,118.23,103.1,118.23z" class="st6"/><path d="M72.25,67.31l-0.5-0.9c2.01-1.11,3.53-2.88,3.53-3.49h1.03C76.3,64.2,74.21,66.23,72.25,67.31z" class="st6"/><path d="M75.29,68.29c-0.74-0.59-2.08-0.7-3.17-0.74l0.03-1.03c1.33,0.04,2.82,0.19,3.78,0.96L75.29,68.29z" class="st6"/><path d="M40.88,67.8l1.53-3.06l0.92,0.46l-0.53,1.06c2.64-0.77,3.28,0.24,3.28,0.24L40.88,67.8z" class="st6"/><path d="M15.08,80.45l-1.24-0.62l0.46-0.92l2.06,1.03C16.11,80.68,15.58,80.67,15.08,80.45z" class="st6"/><path d="M14.01,93.81l-1.19-0.6l0.46-0.92l2.04,1.02C15.33,93.31,14.83,94.17,14.01,93.81z" class="st6"/><path d="M76.15,91.05l-0.73-0.73l1.91-1.91V75.77c0-1.05,0.09-2.11,0.26-3.15l0.08-0.48 c0.44-2.62,1.61-5.03,3.4-6.99l0.76,0.69c-1.65,1.81-2.74,4.05-3.15,6.47l-0.08,0.48c-0.16,0.98-0.25,1.99-0.25,2.98v13.07 L76.15,91.05z" class="st6"/><path d="M95.85,89.93h-1.03v-4.39c0-1.86,0-4.66-1.66-6.57l0.78-0.68c1.91,2.19,1.91,5.23,1.91,7.24V89.93z" class="st6"/><path d="M100.28,102.52h-2.02l-0.13-0.09c-2.08-1.38-3.32-3.7-3.32-6.19V93.5h1.03v2.74c0,2.1,1.02,4.05,2.73,5.25 h1.07l0.18-0.35c-1.85-1.4-2.94-3.59-2.94-5.93V93.5h1.03v1.71c0,2.15,1.07,4.15,2.86,5.34l0.38,0.25L100.28,102.52z" class="st6"/><path d="M97.91,89.94h-1.03v-5.42c0-1.7-0.25-3.17-0.73-4.37l0.95-0.38c0.53,1.33,0.8,2.93,0.8,4.75V89.94z" class="st6"/><path d="M34.78,74.31l-0.36-0.96c7.58-2.85,20.11-3.71,27.04-2.72l0.28,0.04l-0.15,1.02l-0.28-0.04 C54.65,70.7,42.11,71.56,34.78,74.31z" class="st6"/><path d="M106.33,97.33c-1.96-1.71-4.71-3.51-8.16-5.37l0.49-0.91c3.52,1.89,6.33,3.74,8.35,5.5L106.33,97.33z" class="st6"/><path d="M95.1,90.4c-1.94-0.95-4.03-1.88-6.19-2.78l0.39-0.95c2.18,0.9,4.28,1.85,6.25,2.8L95.1,90.4z" class="st6"/><path d="M85.77,86.37c-1.55-0.59-3.05-1.13-4.47-1.6l0.32-0.98c1.43,0.47,2.95,1.02,4.51,1.61L85.77,86.37z" class="st6"/><path d="M105.9,99.93c-1.99-1.88-4.96-3.88-8.82-5.95l0.49-0.91c3.94,2.11,6.98,4.16,9.04,6.1L105.9,99.93z" class="st6"/><path d="M94.1,92.47c-1.9-0.93-3.92-1.84-6.02-2.71l0.39-0.95c2.11,0.88,4.16,1.8,6.07,2.73L94.1,92.47z" class="st6"/><path d="M84.91,88.49c-2.62-1-5.17-1.87-7.2-2.45l0.28-0.99c2.05,0.59,4.64,1.47,7.29,2.48L84.91,88.49z" class="st6"/><rect width="3.81" height="1.03" x="76.41" y="35.83" class="st6" transform="matrix(0.2423 -0.9702 0.9702 0.2423 24.0808 103.5197)"/><polygon points="78.31 35.29 77.26 34.25 78.35 30.86 79.33 31.18 78.43 33.97 79.03 34.57" class="st6"/><rect width="2.04" height="1.03" x="51.51" y="92.23" class="st6"/><rect width="1.03" height="6.58" x="46.78" y="92.65" class="st6" transform="matrix(0.3163 -0.9487 0.9487 0.3163 -58.6707 110.4599)"/><rect width="23.66" height="1.03" x="43.47" y="85.91" class="st6" transform="matrix(0.5146 -0.8574 0.8574 0.5146 -47.2638 89.3647)"/><path d="M66.02,61.88h-1.03c0-20.62-12.39-23.06-17.68-24.1l-0.83-0.17v-0.42c0-2.7-3.11-3.7-3.74-3.88 c-0.97-0.27-1.87-0.73-2.66-1.35c0,0.24,0.04,0.49,0.13,0.74c0.16,0.44,0.46,0.78,0.8,0.92c0.19,0.08,0.85,0.25,0.85,0.26 c0.72,0.25,1.28,0.77,1.55,1.45c0.28,0.68,0.25,1.44-0.08,2.09l-0.1,0.2l-0.22,0.06c-0.05,0.01-5.11,1.48-6.92,3.85l-1.46,2.23 c-0.4,0.62-0.86,1.22-1.34,1.77l-5.05,5.77c-0.63,0.72-0.59,1.81,0.08,2.48l0.21,0.21l-0.07,0.28 c-0.23,0.88-0.15,1.83,0.22,2.66c0.08,0.18,0.26,0.29,0.45,0.29h0.38c0.57,0,0.69,0,0.98-0.63c0.42-0.92,1.67-3.61,4.06-4.75 l0.44,0.93c-2.06,0.98-3.14,3.33-3.55,4.22c-0.54,1.17-1.14,1.25-1.93,1.25h-0.38c-0.6,0-1.15-0.36-1.39-0.91 c-0.42-0.96-0.54-2.03-0.34-3.06c-0.86-1.06-0.85-2.62,0.07-3.67l5.05-5.77c0.46-0.52,0.88-1.08,1.26-1.66l1.48-2.27 c1.82-2.39,6.16-3.84,7.24-4.17c0.11-0.34,0.1-0.71-0.03-1.05c-0.16-0.4-0.49-0.71-0.9-0.85l0,0c0,0-0.73-0.2-0.94-0.29 c-0.61-0.25-1.11-0.8-1.37-1.51c-0.29-0.77-0.26-1.6,0.08-2.28l0.32-0.64l0.5,0.5c0.79,0.79,1.78,1.37,2.86,1.67 c0.72,0.2,4.18,1.32,4.47,4.44l0.02,0C53.04,37.86,66.02,40.42,66.02,61.88z" class="st6"/><rect width="6.11" height="1.03" x="9.94" y="87.44" class="st6" transform="matrix(0.9486 -0.3165 0.3165 0.9486 -27.1713 8.6372)"/><rect width="9.46" height="1.03" x="12.53" y="99.32" class="st6" transform="matrix(0.7071 -0.7071 0.7071 0.7071 -65.5414 41.4461)"/><path d="M38.86,107.77l-2.91-1.46l0.44-0.67c2.4-3.6,6.25-5.85,10.56-6.18l0.08,1.03 c-3.87,0.3-7.34,2.27-9.57,5.42l1.2,0.6l0.34-0.34c1.04-1.04,2.41-1.61,3.88-1.61v1.03c-1.19,0-2.31,0.46-3.15,1.3 L38.86,107.77z" class="st6"/><polygon points="64.99 115.89 61.13 110.75 54.55 110.75 58.26 108.27 49.42 104.49 49.82 103.54 60.41 108.08 57.94 109.72 61.65 109.72 63.96 112.8 63.96 108.99 66.32 106.63 63.23 106.63 60.87 104.27 60.87 106.89 49.77 102.26 50.16 101.31 59.84 105.35 59.84 101.79 63.66 105.6 68.8 105.6 64.99 109.42" class="st6"/><path d="M53.42,107.77l-2.83-0.94v0.83h-8.23v-3.08l0.51,0c0.04,0,3.76-0.04,4.66-2.73l0.07-0.23l0.98,0.3 l-0.08,0.24c-0.92,2.75-3.91,3.31-5.12,3.42v1.06h6.17v-1.23l3.34,1.11l0.46-0.92l0.92,0.46L53.42,107.77z" class="st6"/><path d="M52.67,102.82l-1-0.22c0.31-1.41,2.09-3.06,4.33-5.15c3-2.8,6.74-6.28,6.93-9.59l1.03,0.06 c-0.21,3.73-4.12,7.36-7.25,10.29C54.75,100.01,52.91,101.72,52.67,102.82z" class="st6"/><path d="M54.74,103.68l-1-0.22c0.41-1.84,2.61-3.18,4.21-4.16l0.96-0.6c2.27-1.41,6.07-4.47,6.07-9.04l-0.01-0.2 l1.03-0.05l0.01,0.23c0,5.1-4.11,8.42-6.56,9.94l-0.97,0.6C57.04,101.06,55.06,102.27,54.74,103.68z" class="st6"/><rect width="16.75" height="1.03" x="46.28" y="90.73" class="st6" transform="matrix(0.5926 -0.8055 0.8055 0.5926 -51.2326 81.1901)"/><polygon points="61.78 35.02 60.04 31.54 52.25 31.54 55.7 25.79 56.58 26.31 54.07 30.51 60.68 30.51 62.7 34.56" class="st6"/><rect width="1.03" height="3.32" x="66.2" y="29.41" class="st6" transform="matrix(0.8508 -0.5254 0.5254 0.8508 -6.3733 39.6878)"/><path d="M35.3,50.26c-1.35-1.04-2.76-2.01-4.19-2.87l0.53-0.88c1.46,0.88,2.91,1.87,4.29,2.93L35.3,50.26z" class="st6"/><path d="M43.39,58.8h-1.03c0-1.83-1.25-3.18-1.79-3.76c-0.5-0.54-1.28-1.35-2.31-2.3l0.7-0.76 c0.85,0.78,1.64,1.56,2.35,2.33C41.94,55.01,43.39,56.57,43.39,58.8z" class="st6"/><path d="M34.36,52.38c-1.53-1.19-3.14-2.28-4.78-3.23l0.52-0.89c1.67,0.98,3.32,2.09,4.89,3.31L34.36,52.38z" class="st6"/><path d="M60.99,65.01c-6.72,0-13.43-0.98-19.92-2.92l-3.13-0.94l1.69-2.54c0.32-0.48,0.28-1.12-0.12-1.54 c-0.65-0.7-1.72-1.79-3.15-3.04l0.68-0.78c1.46,1.27,2.56,2.4,3.23,3.11c0.22,0.23,0.37,0.5,0.47,0.78l4.74,1.55 c9.75,3.08,20.18,3.56,30.18,1.38l2.36-0.51c0.73-0.16,1.49,0.22,1.8,0.9c0.2,0.44,0.19,0.93-0.01,1.37 c-0.21,0.43-0.59,0.75-1.06,0.86l-0.95,0.24C72.28,64.32,66.63,65.01,60.99,65.01z M39.57,60.56l1.79,0.54 c11.76,3.53,24.28,3.82,36.19,0.84l0.95-0.24c0.17-0.04,0.31-0.16,0.38-0.31c0.08-0.16,0.08-0.34,0.01-0.49 c-0.11-0.25-0.38-0.38-0.65-0.32l-2.36,0.51c-10.17,2.21-20.79,1.73-30.71-1.41l-4.32-1.41c-0.05,0.32-0.17,0.63-0.36,0.91 L39.57,60.56z" class="st6"/><path d="M34.23,60.13c-1,0-1.74-0.38-2.1-1.11l-0.2-0.41l0.38-0.25c1.95-1.3,3.54-2.77,4.72-4.38l0.83,0.61 c-1.15,1.57-2.66,3.01-4.5,4.3c0.54,0.34,1.48,0.16,1.8,0.09c1.56-0.37,3.1-1.48,3.1-2.25c0-0.47,0.03-0.87,0.11-1.22 l1.01,0.21c-0.06,0.28-0.09,0.61-0.09,1.01c0,1.44-2.02,2.8-3.89,3.25C34.97,60.08,34.58,60.13,34.23,60.13z" class="st6"/><rect width="1.91" height="1.03" x="40.01" y="52.83" class="st6" transform="matrix(0.8313 -0.5558 0.5558 0.8313 -22.7384 31.7701)"/><path d="M47.5,51.35c-0.04-2-0.6-3.92-1.66-5.69l0.88-0.53c1.15,1.92,1.76,4.01,1.81,6.19L47.5,51.35z" class="st6"/><path d="M43.7,42.93c-1.75-1.78-3.72-2.98-5.06-3.68l0.48-0.91c1.4,0.73,3.47,2,5.31,3.87L43.7,42.93z" class="st6"/><path d="M50.59,50.57h-1.03c0-2.31-0.68-4.5-2.01-6.5l0.86-0.57C49.85,45.67,50.59,48.05,50.59,50.57z" class="st6"/><path d="M45.56,41.68c-1.67-1.64-3.49-2.76-4.72-3.41l0.48-0.91c1.29,0.68,3.2,1.86,4.96,3.59L45.56,41.68z" class="st6"/><rect width="8.99" height="1.03" x="36.23" y="46.03" class="st6" transform="matrix(0.7071 -0.7071 0.7071 0.7071 -20.9834 42.4271)"/><path d="M46.27,41.64l-0.79-0.66c1.37-1.62,1.94-2.97,2.01-3.64l1.02,0.11C48.39,38.55,47.55,40.12,46.27,41.64z" class="st6"/><path d="M48.2,42.81l-0.78-0.67c1.47-1.7,2.13-3.22,2.13-3.92v-0.37h1.03v0.37C50.59,39.35,49.67,41.11,48.2,42.81 z" class="st6"/><rect width="8.99" height="1.03" x="37.44" y="47.91" class="st6" transform="matrix(0.7071 -0.7071 0.7071 0.7071 -21.9561 43.832)"/><rect width="1.03" height="2.39" x="32.93" y="53.75" class="st6" transform="matrix(0.6373 -0.7706 0.7706 0.6373 -30.2152 45.6994)"/><rect width="5.63" height="1.03" x="72.27" y="46.78" class="st6" transform="matrix(0.5135 -0.8581 0.8581 0.5135 -4.053 87.4363)"/><rect width="3.8" height="1.03" x="71.86" y="44.42" class="st6" transform="matrix(0.5345 -0.8452 0.8452 0.5345 -3.6339 83.2623)"/><path d="M80.1,46.05c-3.53,0-4.99-1.26-5.58-2.16c-0.72-1.09-0.6-2.25-0.2-2.86c0.19-0.28,0.44-0.54,0.66-0.75 l-5.36-4.59l0.67-0.78l6.31,5.41l-0.52,0.38c-0.17,0.12-0.66,0.52-0.9,0.9c-0.18,0.28-0.29,0.99,0.2,1.73 c0.5,0.75,2.27,2.39,8.1,1.36l0.18,1.01C82.29,45.94,81.11,46.05,80.1,46.05z" class="st6"/><path d="M82.05,32.56h-1.21c-0.23,0-0.42-0.19-0.42-0.42v-0.61h2.06v0.61C82.48,32.37,82.29,32.56,82.05,32.56z" class="st6"/><path d="M28.98,69.6h-1.03v1.63c0,0.23,0.19,0.42,0.42,0.42h0.61V69.6z" class="st6"/><path d="M20.75,80.91l-1.03,1.03v-2.06c0-0.57,0.46-1.03,1.03-1.03l0,0V80.91z" class="st6"/><polygon points="80.09 37.93 79.56 36.68 78.36 36.68 78.36 35.65 80.25 35.65 81.04 37.53" class="st6"/><polygon points="82.31 36.98 80.95 35.01 78.23 35.01 78.23 33.98 81.48 33.98 83.16 36.39" class="st6"/><path d="M37.84,44.41c-0.51,0-1.02-0.2-1.41-0.58l-1.56-1.56l0.73-0.73l1.1,1.1l0.66-0.66 c0.77-0.77,1.99-0.89,2.9-0.29l0.91,0.61l-2.09,1.67C38.72,44.26,38.28,44.41,37.84,44.41z M37.48,43.31 c0.31,0.12,0.68,0.08,0.96-0.14l0.95-0.76c-0.45-0.15-0.96-0.04-1.31,0.3L37.48,43.31z" class="st6"/><rect width="1.03" height="1.75" x="38.57" y="41.44" class="st6" transform="matrix(0.401 -0.9161 0.9161 0.401 -15.3504 61.1472)"/><path d="M92.76,41.13h-1.03v-1.36h-1.43c-0.6,0-1.13-0.34-1.38-0.88c-0.25-0.54-0.16-1.16,0.23-1.62l2.25-2.62 c1.23-1.44,1.15-3.62-0.19-4.96l-3.23-3.23l-5.13,1.44l-0.28-0.99l5.71-1.61l3.66,3.66c1.72,1.72,1.83,4.51,0.24,6.36 l-2.25,2.62c-0.19,0.22-0.1,0.45-0.07,0.52c0.03,0.07,0.15,0.28,0.44,0.28h2.45V41.13z" class="st6"/><rect width="43.72" height="1.03" x="65.5" y="21.25" class="st6"/><path d="M102.96,24.33H65.5v-1.03h37.45c1.33,0,2.66-0.31,3.86-0.9l1.33-0.66l-1.35-0.65 c-1.18-0.58-2.51-0.88-3.82-0.88H65.5v-1.03h37.47c1.47,0,2.95,0.34,4.27,0.98l3.24,1.57l-3.22,1.58 C105.93,23.99,104.44,24.33,102.96,24.33z" class="st6"/><path d="M86.4,44.89l-0.94-0.42c0.78-1.73,2.2-2.95,4.1-3.52c2.31-0.69,5.09-0.31,7.08,0.96L96.8,42l-0.55,0.87 l-0.16-0.1c-1.72-1.1-4.23-1.44-6.24-0.84C88.73,42.27,87.22,43.05,86.4,44.89z" class="st6"/><path d="M90.17,41.82c-0.99,0-2.35-0.45-3.28-1.72c-0.84-1.15-1.56-3.33-0.27-7.19l0.98,0.33 c-1.15,3.45-0.56,5.31,0.13,6.26c0.7,0.96,1.73,1.26,2.46,1.29l0.01,1.03C90.19,41.82,90.18,41.82,90.17,41.82z" class="st6"/><path d="M128.77,10.96v76.12c0,33.47-27.23,60.69-60.69,60.69S7.38,120.55,7.38,87.09V10.96H128.77 M130.83,8.9 H5.32v78.18c0,34.66,28.09,62.75,62.75,62.75s62.75-28.09,62.75-62.75V8.9L130.83,8.9z" class="st6"/></g></g><g><path d="M161.22,43.06h7.28v2.03h-9.56V28.77h2.28V43.06z" class="st6"/><path d="M173.18,45.08h-2.28V28.77h2.28V45.08z" class="st6"/><path d="M179.61,43.06h8.52v2.03h-10.8V28.77h10.46v2h-8.18v4.88h7.69v1.96h-7.69V43.06z" class="st6"/><path d="M197.07,45.08h-2.28V30.78h-5.23v-2h12.74v2h-5.23V45.08z" class="st6"/><path d="M210.87,45.5c-1.08,0-2.01-0.18-2.81-0.54c-0.8-0.36-1.46-0.84-1.98-1.44c-0.52-0.6-0.91-1.29-1.16-2.06 c-0.25-0.78-0.38-1.58-0.38-2.41V28.77h2.28v10.14c0,0.55,0.07,1.1,0.21,1.65c0.14,0.55,0.36,1.03,0.68,1.46 c0.31,0.43,0.73,0.78,1.24,1.04c0.51,0.26,1.16,0.39,1.92,0.39c0.75,0,1.39-0.13,1.91-0.39c0.52-0.26,0.94-0.61,1.26-1.04 c0.31-0.43,0.54-0.92,0.68-1.46c0.14-0.55,0.21-1.09,0.21-1.65V28.77h2.28v10.27c0,0.83-0.13,1.63-0.38,2.41 c-0.25,0.78-0.64,1.46-1.16,2.06c-0.52,0.6-1.18,1.08-1.98,1.44C212.88,45.32,211.94,45.5,210.87,45.5z" class="st6"/><path d="M226.65,42.14h0.07l4.91-13.36h2.46l-6.4,16.31h-2.12l-6.36-16.31h2.53L226.65,42.14z" class="st6"/><path d="M252.38,36.91c0,1.26-0.22,2.42-0.66,3.47c-0.44,1.05-1.04,1.96-1.81,2.72c-0.77,0.76-1.68,1.35-2.74,1.77 s-2.21,0.63-3.46,0.63c-1.24,0-2.39-0.21-3.44-0.63c-1.05-0.42-1.96-1.01-2.73-1.77c-0.77-0.76-1.37-1.67-1.8-2.72 c-0.43-1.05-0.65-2.21-0.65-3.47c0-1.27,0.21-2.44,0.65-3.49c0.43-1.05,1.03-1.95,1.8-2.7c0.77-0.74,1.68-1.32,2.73-1.74 c1.05-0.41,2.2-0.62,3.44-0.62c1.24,0,2.4,0.21,3.46,0.62s1.97,0.99,2.74,1.74c0.77,0.74,1.37,1.64,1.81,2.7 C252.16,34.47,252.38,35.63,252.38,36.91z M249.91,36.91c0-0.89-0.15-1.73-0.44-2.52c-0.29-0.79-0.71-1.49-1.24-2.08 c-0.54-0.6-1.19-1.07-1.95-1.42c-0.76-0.35-1.62-0.52-2.57-0.52c-0.94,0-1.79,0.17-2.55,0.52c-0.76,0.35-1.41,0.82-1.94,1.42 c-0.53,0.6-0.94,1.29-1.23,2.08c-0.29,0.79-0.44,1.63-0.44,2.52c0,0.91,0.15,1.76,0.44,2.56c0.29,0.8,0.71,1.49,1.24,2.08 c0.54,0.59,1.18,1.06,1.94,1.39c0.75,0.34,1.6,0.51,2.53,0.51c0.94,0,1.79-0.17,2.56-0.51c0.77-0.34,1.42-0.8,1.96-1.39 c0.54-0.59,0.95-1.29,1.24-2.08C249.77,38.67,249.91,37.81,249.91,36.91z" class="st6"/><path d="M263.78,31.79c-0.32-0.45-0.76-0.81-1.31-1.09c-0.55-0.28-1.17-0.43-1.87-0.43c-0.37,0-0.74,0.05-1.12,0.15 c-0.38,0.1-0.72,0.26-1.03,0.48c-0.31,0.22-0.56,0.5-0.75,0.83c-0.19,0.33-0.29,0.73-0.29,1.19c0,0.45,0.09,0.82,0.26,1.12 c0.18,0.3,0.41,0.55,0.71,0.76s0.65,0.38,1.06,0.53c0.41,0.15,0.84,0.3,1.3,0.45c0.55,0.17,1.11,0.36,1.68,0.58 c0.57,0.22,1.08,0.5,1.54,0.85c0.46,0.35,0.84,0.79,1.13,1.32c0.29,0.53,0.44,1.2,0.44,2.02c0,0.84-0.16,1.58-0.47,2.2 c-0.31,0.62-0.73,1.14-1.26,1.54c-0.52,0.41-1.13,0.71-1.81,0.91c-0.68,0.2-1.39,0.3-2.11,0.3c-1.03,0-2.02-0.2-2.98-0.6 c-0.96-0.4-1.75-0.99-2.38-1.77l1.77-1.5c0.38,0.57,0.9,1.03,1.54,1.38c0.65,0.35,1.34,0.53,2.1,0.53 c0.38,0,0.77-0.05,1.15-0.16c0.38-0.11,0.73-0.28,1.05-0.51c0.31-0.23,0.57-0.52,0.77-0.86c0.2-0.35,0.3-0.76,0.3-1.26 c0-0.49-0.1-0.9-0.31-1.23c-0.21-0.33-0.49-0.61-0.84-0.84c-0.35-0.23-0.76-0.43-1.23-0.59c-0.47-0.16-0.96-0.33-1.49-0.5 c-0.52-0.15-1.04-0.34-1.54-0.56c-0.51-0.22-0.96-0.51-1.36-0.85c-0.4-0.35-0.72-0.77-0.97-1.28c-0.25-0.51-0.37-1.14-0.37-1.89 c0-0.81,0.16-1.51,0.5-2.1c0.33-0.58,0.76-1.07,1.29-1.45c0.53-0.38,1.13-0.66,1.8-0.84c0.67-0.18,1.34-0.27,2.02-0.27 c0.95,0,1.84,0.17,2.67,0.51c0.83,0.34,1.5,0.79,2,1.36L263.78,31.79z" class="st6"/><path d="M161.22,72.73h-2.28V56.42h5.23c0.78,0,1.53,0.08,2.23,0.24c0.71,0.16,1.32,0.42,1.85,0.77 c0.53,0.35,0.95,0.82,1.26,1.39c0.31,0.58,0.46,1.28,0.46,2.11c0,1.2-0.37,2.17-1.11,2.9s-1.69,1.21-2.86,1.41l4.56,7.49h-2.76 l-4.15-7.26h-2.44V72.73z M161.22,63.56h2.63c0.54,0,1.04-0.05,1.5-0.14c0.46-0.09,0.86-0.24,1.21-0.45 c0.35-0.21,0.62-0.48,0.82-0.81c0.2-0.33,0.3-0.74,0.3-1.23c0-0.49-0.1-0.9-0.3-1.23c-0.2-0.33-0.46-0.59-0.79-0.79 c-0.33-0.2-0.72-0.34-1.16-0.43c-0.45-0.08-0.91-0.13-1.41-0.13h-2.79V63.56z" class="st6"/><path d="M175.55,70.7h8.52v2.03h-10.8V56.42h10.46v2h-8.18v4.88h7.69v1.96h-7.69V70.7z" class="st6"/><path d="M195.41,59.44c-0.32-0.45-0.76-0.81-1.31-1.09c-0.55-0.28-1.17-0.43-1.87-0.43c-0.37,0-0.74,0.05-1.12,0.15 c-0.38,0.1-0.72,0.26-1.03,0.48c-0.31,0.22-0.56,0.5-0.75,0.83c-0.19,0.33-0.29,0.73-0.29,1.19c0,0.45,0.09,0.82,0.26,1.12 c0.18,0.3,0.41,0.55,0.71,0.76s0.65,0.38,1.06,0.53c0.41,0.15,0.84,0.3,1.3,0.45c0.55,0.17,1.11,0.36,1.68,0.58 c0.57,0.22,1.08,0.5,1.54,0.85c0.46,0.35,0.84,0.79,1.13,1.32c0.29,0.53,0.44,1.2,0.44,2.02c0,0.84-0.16,1.58-0.47,2.2 c-0.31,0.62-0.73,1.14-1.26,1.54c-0.52,0.41-1.13,0.71-1.81,0.91c-0.68,0.2-1.39,0.3-2.11,0.3c-1.03,0-2.02-0.2-2.98-0.6 c-0.96-0.4-1.75-0.99-2.38-1.77l1.77-1.5c0.38,0.57,0.9,1.03,1.54,1.38c0.65,0.35,1.34,0.53,2.1,0.53 c0.38,0,0.77-0.05,1.15-0.16c0.38-0.11,0.73-0.28,1.05-0.51c0.31-0.23,0.57-0.52,0.77-0.86c0.2-0.35,0.3-0.76,0.3-1.26 c0-0.49-0.1-0.9-0.31-1.23c-0.21-0.33-0.49-0.61-0.84-0.84c-0.35-0.23-0.76-0.43-1.23-0.59c-0.47-0.16-0.96-0.33-1.49-0.5 c-0.52-0.15-1.04-0.34-1.54-0.56c-0.51-0.22-0.96-0.51-1.36-0.85c-0.4-0.35-0.72-0.77-0.97-1.28c-0.25-0.51-0.37-1.14-0.37-1.89 c0-0.81,0.16-1.51,0.5-2.1c0.33-0.58,0.76-1.07,1.29-1.45c0.53-0.38,1.13-0.66,1.8-0.84c0.67-0.18,1.34-0.27,2.02-0.27 c0.95,0,1.84,0.17,2.67,0.51c0.83,0.34,1.5,0.79,2,1.36L195.41,59.44z" class="st6"/><path d="M200.59,56.42h4.98c0.88,0,1.67,0.09,2.4,0.26c0.72,0.18,1.34,0.45,1.84,0.82c0.51,0.37,0.9,0.84,1.17,1.41 c0.28,0.57,0.41,1.25,0.41,2.05c0,0.81-0.15,1.51-0.45,2.1c-0.3,0.58-0.71,1.06-1.24,1.43c-0.53,0.37-1.16,0.64-1.89,0.82 c-0.73,0.18-1.52,0.26-2.36,0.26h-2.58v7.16h-2.28V56.42z M202.87,63.63h2.42c0.55,0,1.06-0.05,1.53-0.15 c0.47-0.1,0.87-0.25,1.21-0.46c0.34-0.21,0.6-0.48,0.78-0.82c0.18-0.34,0.28-0.75,0.28-1.24c0-0.49-0.1-0.9-0.29-1.23 c-0.19-0.33-0.45-0.6-0.78-0.81c-0.33-0.21-0.73-0.35-1.19-0.44c-0.46-0.08-0.96-0.13-1.5-0.13h-2.46V63.63z" class="st6"/><path d="M220.7,73.14c-1.08,0-2.01-0.18-2.81-0.54c-0.8-0.36-1.46-0.84-1.98-1.44c-0.52-0.6-0.91-1.29-1.16-2.06 c-0.25-0.78-0.38-1.58-0.38-2.41V56.42h2.28v10.14c0,0.55,0.07,1.1,0.21,1.65c0.14,0.55,0.36,1.03,0.68,1.46 c0.31,0.43,0.73,0.78,1.24,1.04c0.51,0.26,1.16,0.39,1.92,0.39c0.75,0,1.39-0.13,1.91-0.39c0.52-0.26,0.94-0.61,1.26-1.04 c0.31-0.43,0.54-0.92,0.68-1.46c0.14-0.55,0.21-1.09,0.21-1.65V56.42h2.28v10.27c0,0.83-0.13,1.63-0.38,2.41 c-0.25,0.78-0.64,1.46-1.16,2.06c-0.52,0.6-1.18,1.08-1.98,1.44C222.72,72.96,221.78,73.14,220.7,73.14z" class="st6"/><path d="M231.07,56.42h5.62c0.61,0,1.23,0.07,1.84,0.21c0.61,0.14,1.16,0.37,1.65,0.69s0.88,0.75,1.17,1.27 c0.3,0.52,0.45,1.17,0.45,1.96c0,0.91-0.26,1.67-0.78,2.28c-0.52,0.61-1.21,1.04-2.07,1.27v0.05c0.52,0.06,1.01,0.2,1.45,0.4 c0.45,0.21,0.83,0.48,1.15,0.82c0.32,0.34,0.57,0.74,0.75,1.2c0.18,0.46,0.26,0.98,0.26,1.54c0,0.78-0.16,1.47-0.48,2.05 c-0.32,0.58-0.76,1.06-1.31,1.44c-0.55,0.38-1.2,0.66-1.95,0.85c-0.75,0.19-1.54,0.29-2.38,0.29h-5.37V56.42z M233.35,63.31 h2.97c0.43,0,0.84-0.05,1.23-0.15c0.39-0.1,0.73-0.25,1.03-0.46c0.29-0.21,0.52-0.47,0.69-0.78c0.17-0.31,0.25-0.69,0.25-1.14 c0-0.88-0.32-1.5-0.97-1.88c-0.65-0.38-1.51-0.56-2.6-0.56h-2.6V63.31z M233.35,70.79h2.86c0.48,0,0.96-0.04,1.44-0.13 c0.48-0.08,0.92-0.23,1.31-0.45c0.39-0.21,0.71-0.5,0.94-0.86c0.24-0.36,0.36-0.82,0.36-1.37c0-0.97-0.33-1.67-0.99-2.1 c-0.66-0.43-1.61-0.65-2.86-0.65h-3.06V70.79z" class="st6"/><path d="M248.32,70.7h7.28v2.03h-9.56V56.42h2.28V70.7z" class="st6"/><path d="M260.28,72.73H258V56.42h2.28V72.73z" class="st6"/><path d="M266.71,63.61h0.05l7.28-7.19h3.16l-7.92,7.46l8.41,8.85h-3.27l-7.65-8.43h-0.05v8.43h-2.28V56.42h2.28 V63.61z" class="st6"/><path d="M295.59,64.55c0,1.26-0.22,2.42-0.66,3.47c-0.44,1.05-1.04,1.96-1.81,2.72c-0.77,0.76-1.68,1.35-2.74,1.77 s-2.21,0.63-3.46,0.63c-1.24,0-2.39-0.21-3.44-0.63c-1.05-0.42-1.96-1.01-2.73-1.77c-0.77-0.76-1.37-1.67-1.8-2.72 c-0.43-1.05-0.65-2.21-0.65-3.47c0-1.27,0.21-2.44,0.65-3.49c0.43-1.05,1.03-1.95,1.8-2.7c0.77-0.74,1.68-1.32,2.73-1.74 c1.05-0.41,2.2-0.62,3.44-0.62c1.24,0,2.4,0.21,3.46,0.62s1.97,0.99,2.74,1.74c0.77,0.74,1.37,1.64,1.81,2.7 C295.38,62.11,295.59,63.28,295.59,64.55z M293.13,64.55c0-0.89-0.15-1.73-0.44-2.52c-0.29-0.79-0.71-1.49-1.24-2.08 c-0.54-0.6-1.19-1.07-1.95-1.42c-0.76-0.35-1.62-0.52-2.57-0.52c-0.94,0-1.79,0.17-2.55,0.52c-0.76,0.35-1.41,0.82-1.94,1.42 c-0.53,0.6-0.94,1.29-1.23,2.08c-0.29,0.79-0.44,1.63-0.44,2.52c0,0.91,0.15,1.76,0.44,2.56c0.29,0.8,0.71,1.49,1.24,2.08 c0.54,0.59,1.18,1.06,1.94,1.39c0.75,0.34,1.6,0.51,2.53,0.51c0.94,0,1.79-0.17,2.56-0.51c0.77-0.34,1.42-0.8,1.96-1.39 c0.54-0.59,0.95-1.29,1.24-2.08C292.98,66.31,293.13,65.46,293.13,64.55z" class="st6"/><path d="M307,59.44c-0.32-0.45-0.76-0.81-1.31-1.09c-0.55-0.28-1.17-0.43-1.87-0.43c-0.37,0-0.74,0.05-1.12,0.15 c-0.38,0.1-0.72,0.26-1.03,0.48c-0.31,0.22-0.56,0.5-0.75,0.83c-0.19,0.33-0.29,0.73-0.29,1.19c0,0.45,0.09,0.82,0.26,1.12 c0.18,0.3,0.41,0.55,0.71,0.76s0.65,0.38,1.06,0.53c0.41,0.15,0.84,0.3,1.3,0.45c0.55,0.17,1.11,0.36,1.68,0.58 c0.57,0.22,1.08,0.5,1.54,0.85c0.46,0.35,0.84,0.79,1.13,1.32c0.29,0.53,0.44,1.2,0.44,2.02c0,0.84-0.16,1.58-0.47,2.2 c-0.31,0.62-0.73,1.14-1.26,1.54c-0.52,0.41-1.13,0.71-1.81,0.91c-0.68,0.2-1.39,0.3-2.11,0.3c-1.03,0-2.02-0.2-2.98-0.6 c-0.96-0.4-1.75-0.99-2.38-1.77l1.77-1.5c0.38,0.57,0.9,1.03,1.54,1.38c0.65,0.35,1.34,0.53,2.1,0.53 c0.38,0,0.77-0.05,1.15-0.16c0.38-0.11,0.73-0.28,1.05-0.51c0.31-0.23,0.57-0.52,0.77-0.86c0.2-0.35,0.3-0.76,0.3-1.26 c0-0.49-0.1-0.9-0.31-1.23c-0.21-0.33-0.49-0.61-0.84-0.84c-0.35-0.23-0.76-0.43-1.23-0.59c-0.47-0.16-0.96-0.33-1.49-0.5 c-0.52-0.15-1.04-0.34-1.54-0.56c-0.51-0.22-0.96-0.51-1.36-0.85c-0.4-0.35-0.72-0.77-0.97-1.28c-0.25-0.51-0.37-1.14-0.37-1.89 c0-0.81,0.16-1.51,0.5-2.1c0.33-0.58,0.76-1.07,1.29-1.45c0.53-0.38,1.13-0.66,1.8-0.84c0.67-0.18,1.34-0.27,2.02-0.27 c0.95,0,1.84,0.17,2.67,0.51c0.83,0.34,1.5,0.79,2,1.36L307,59.44z" class="st6"/><path d="M164.36,97.42h0.07l4.91-13.36h2.46l-6.4,16.31h-2.12l-6.36-16.31h2.53L164.36,97.42z" class="st6"/><path d="M180.28,100.37h-2.3v-7.05l-6.1-9.26h2.81l4.52,7.37l4.54-7.37h2.65l-6.1,9.26V100.37z" class="st6"/><path d="M190.76,100.37h-2.28V84.06h5.23c0.78,0,1.53,0.08,2.23,0.24c0.71,0.16,1.32,0.42,1.85,0.77 c0.53,0.35,0.95,0.82,1.26,1.39c0.31,0.58,0.46,1.28,0.46,2.11c0,1.2-0.37,2.17-1.11,2.9s-1.69,1.21-2.86,1.41l4.56,7.49h-2.76 l-4.15-7.26h-2.44V100.37z M190.76,91.2h2.63c0.54,0,1.04-0.05,1.5-0.14c0.46-0.09,0.86-0.24,1.21-0.45 c0.35-0.21,0.62-0.48,0.82-0.81c0.2-0.33,0.3-0.74,0.3-1.23c0-0.49-0.1-0.9-0.3-1.23c-0.2-0.33-0.46-0.59-0.79-0.79 c-0.33-0.2-0.72-0.34-1.16-0.43c-0.45-0.08-0.91-0.13-1.41-0.13h-2.79V91.2z" class="st6"/><path d="M205.09,100.37h-2.28V84.06h2.28V100.37z" class="st6"/><path d="M209.9,100.37h-2.53l7.07-16.31h2.07l7,16.31h-2.58l-1.66-4.01h-7.74L209.9,100.37z M212.34,94.36h6.1 l-3.04-7.65L212.34,94.36z" class="st6"/><path d="M231.72,100.79c-1.08,0-2.01-0.18-2.81-0.54c-0.8-0.36-1.46-0.84-1.98-1.44c-0.52-0.6-0.91-1.29-1.16-2.06 c-0.25-0.78-0.38-1.58-0.38-2.41V84.06h2.28V94.2c0,0.55,0.07,1.1,0.21,1.65c0.14,0.55,0.36,1.03,0.68,1.46 c0.31,0.43,0.73,0.78,1.24,1.04c0.51,0.26,1.16,0.39,1.92,0.39c0.75,0,1.39-0.13,1.91-0.39c0.52-0.26,0.94-0.61,1.26-1.04 c0.31-0.43,0.54-0.92,0.68-1.46c0.14-0.55,0.21-1.09,0.21-1.65V84.06h2.28v10.27c0,0.83-0.13,1.63-0.38,2.41 c-0.25,0.78-0.64,1.46-1.16,2.06c-0.52,0.6-1.18,1.08-1.98,1.44C233.73,100.61,232.79,100.79,231.72,100.79z" class="st6"/><path d="M250.19,87.08c-0.32-0.45-0.76-0.81-1.31-1.09c-0.55-0.28-1.17-0.43-1.87-0.43c-0.37,0-0.74,0.05-1.12,0.15 c-0.38,0.1-0.72,0.26-1.03,0.48c-0.31,0.22-0.56,0.5-0.75,0.83c-0.19,0.33-0.29,0.73-0.29,1.19c0,0.45,0.09,0.82,0.26,1.12 c0.18,0.3,0.41,0.55,0.71,0.76s0.65,0.38,1.06,0.53c0.41,0.15,0.84,0.3,1.3,0.45c0.55,0.17,1.11,0.36,1.68,0.58 c0.57,0.22,1.08,0.5,1.54,0.85c0.46,0.35,0.84,0.79,1.13,1.32c0.29,0.53,0.44,1.2,0.44,2.02c0,0.84-0.16,1.58-0.47,2.2 c-0.31,0.62-0.73,1.14-1.26,1.54c-0.52,0.41-1.13,0.71-1.81,0.91c-0.68,0.2-1.39,0.3-2.11,0.3c-1.03,0-2.02-0.2-2.98-0.6 c-0.96-0.4-1.75-0.99-2.38-1.77l1.77-1.5c0.38,0.57,0.9,1.03,1.54,1.38c0.65,0.35,1.34,0.53,2.1,0.53 c0.38,0,0.77-0.05,1.15-0.16c0.38-0.11,0.73-0.28,1.05-0.51c0.31-0.23,0.57-0.52,0.77-0.86c0.2-0.35,0.3-0.76,0.3-1.26 c0-0.49-0.1-0.9-0.31-1.23c-0.21-0.33-0.49-0.61-0.84-0.84c-0.35-0.23-0.76-0.43-1.23-0.59c-0.47-0.16-0.96-0.33-1.49-0.5 c-0.52-0.15-1.04-0.34-1.54-0.56c-0.51-0.22-0.96-0.51-1.36-0.85c-0.4-0.35-0.72-0.77-0.97-1.28c-0.25-0.51-0.37-1.14-0.37-1.89 c0-0.81,0.16-1.51,0.5-2.1c0.33-0.58,0.76-1.07,1.29-1.45c0.53-0.38,1.13-0.66,1.8-0.84c0.67-0.18,1.34-0.27,2.02-0.27 c0.95,0,1.84,0.17,2.67,0.51c0.83,0.34,1.5,0.79,2,1.36L250.19,87.08z" class="st6"/><path d="M261.25,100.37h-2.3v-7.05l-6.1-9.26h2.81l4.52,7.37l4.54-7.37h2.65l-6.1,9.26V100.37z" class="st6"/><path d="M269.45,84.06h5.62c0.61,0,1.23,0.07,1.84,0.21c0.61,0.14,1.16,0.37,1.65,0.69s0.88,0.75,1.17,1.27 c0.3,0.52,0.45,1.17,0.45,1.96c0,0.91-0.26,1.67-0.78,2.28c-0.52,0.61-1.21,1.04-2.07,1.27v0.05c0.52,0.06,1.01,0.2,1.45,0.4 c0.45,0.21,0.83,0.48,1.15,0.82c0.32,0.34,0.57,0.74,0.75,1.2c0.18,0.46,0.26,0.98,0.26,1.54c0,0.78-0.16,1.47-0.48,2.05 c-0.32,0.58-0.76,1.06-1.31,1.44c-0.55,0.38-1.2,0.66-1.95,0.85c-0.75,0.19-1.54,0.29-2.38,0.29h-5.37V84.06z M271.73,90.95 h2.97c0.43,0,0.84-0.05,1.23-0.15c0.39-0.1,0.73-0.25,1.03-0.46c0.29-0.21,0.52-0.47,0.69-0.78c0.17-0.31,0.25-0.69,0.25-1.14 c0-0.88-0.32-1.5-0.97-1.88c-0.65-0.38-1.51-0.56-2.6-0.56h-2.6V90.95z M271.73,98.44h2.86c0.48,0,0.96-0.04,1.44-0.13 c0.48-0.08,0.92-0.23,1.31-0.45c0.39-0.21,0.71-0.5,0.94-0.86c0.24-0.36,0.36-0.82,0.36-1.37c0-0.97-0.33-1.67-0.99-2.1 c-0.66-0.43-1.61-0.65-2.86-0.65h-3.06V98.44z" class="st6"/><path d="M286.7,98.34h8.52v2.03h-10.8V84.06h10.46v2h-8.18v4.88h7.69v1.96h-7.69V98.34z M291.1,80.91 c0,0.4-0.14,0.73-0.42,0.99c-0.28,0.26-0.62,0.39-1.02,0.39c-0.4,0-0.73-0.13-1.01-0.4c-0.27-0.27-0.41-0.59-0.41-0.98 c0-0.4,0.14-0.73,0.41-1c0.27-0.27,0.61-0.4,1.01-0.4c0.4,0,0.73,0.13,1.02,0.4C290.96,80.17,291.1,80.51,291.1,80.91z" class="st6"/><path d="M306.56,87.08c-0.32-0.45-0.76-0.81-1.31-1.09c-0.55-0.28-1.17-0.43-1.87-0.43c-0.37,0-0.74,0.05-1.12,0.15 c-0.38,0.1-0.72,0.26-1.03,0.48c-0.31,0.22-0.56,0.5-0.75,0.83c-0.19,0.33-0.29,0.73-0.29,1.19c0,0.45,0.09,0.82,0.26,1.12 c0.18,0.3,0.41,0.55,0.71,0.76s0.65,0.38,1.06,0.53c0.41,0.15,0.84,0.3,1.3,0.45c0.55,0.17,1.11,0.36,1.68,0.58 c0.57,0.22,1.08,0.5,1.54,0.85c0.46,0.35,0.84,0.79,1.13,1.32c0.29,0.53,0.44,1.2,0.44,2.02c0,0.84-0.16,1.58-0.47,2.2 c-0.31,0.62-0.73,1.14-1.26,1.54c-0.52,0.41-1.13,0.71-1.81,0.91c-0.68,0.2-1.39,0.3-2.11,0.3c-1.03,0-2.02-0.2-2.98-0.6 c-0.96-0.4-1.75-0.99-2.38-1.77l1.77-1.5c0.38,0.57,0.9,1.03,1.54,1.38c0.65,0.35,1.34,0.53,2.1,0.53 c0.38,0,0.77-0.05,1.15-0.16c0.38-0.11,0.73-0.28,1.05-0.51c0.31-0.23,0.57-0.52,0.77-0.86c0.2-0.35,0.3-0.76,0.3-1.26 c0-0.49-0.1-0.9-0.31-1.23c-0.21-0.33-0.49-0.61-0.84-0.84c-0.35-0.23-0.76-0.43-1.23-0.59c-0.47-0.16-0.96-0.33-1.49-0.5 c-0.52-0.15-1.04-0.34-1.54-0.56c-0.51-0.22-0.96-0.51-1.36-0.85c-0.4-0.35-0.72-0.77-0.97-1.28c-0.25-0.51-0.37-1.14-0.37-1.89 c0-0.81,0.16-1.51,0.5-2.1c0.33-0.58,0.76-1.07,1.29-1.45c0.53-0.38,1.13-0.66,1.8-0.84c0.67-0.18,1.34-0.27,2.02-0.27 c0.95,0,1.84,0.17,2.67,0.51c0.83,0.34,1.5,0.79,2,1.36L306.56,87.08z" class="st6"/><path d="M161.22,118.89h0.05l7.28-7.19h3.16l-7.92,7.46l8.41,8.85h-3.27l-7.65-8.43h-0.05v8.43h-2.28v-16.31h2.28 V118.89z" class="st6"/><path d="M174.7,128.02h-2.53l7.07-16.31h2.07l7,16.31h-2.58l-1.66-4.01h-7.74L174.7,128.02z M177.14,122h6.1 l-3.04-7.65L177.14,122z" class="st6"/><path d="M202.09,124.74h0.05v-13.04h2.28v16.31h-2.88l-8.62-13.32h-0.05v13.32h-2.28v-16.31h2.97L202.09,124.74z" class="st6"/><path d="M222.55,125.48c-0.65,0.88-1.48,1.59-2.51,2.13c-1.03,0.55-2.27,0.82-3.71,0.82 c-1.24,0-2.39-0.21-3.44-0.63c-1.05-0.42-1.96-1.01-2.72-1.77c-0.76-0.76-1.36-1.67-1.79-2.72c-0.43-1.05-0.65-2.21-0.65-3.47 c0-1.27,0.22-2.44,0.66-3.49c0.44-1.05,1.04-1.95,1.82-2.7c0.78-0.74,1.69-1.32,2.75-1.74s2.21-0.62,3.46-0.62 c0.55,0,1.11,0.05,1.68,0.16c0.57,0.11,1.11,0.27,1.64,0.48c0.52,0.22,1,0.48,1.43,0.79c0.43,0.31,0.8,0.68,1.11,1.09l-1.8,1.38 c-0.4-0.55-0.96-1.01-1.69-1.37c-0.73-0.36-1.52-0.54-2.36-0.54c-0.95,0-1.81,0.17-2.57,0.52c-0.76,0.35-1.41,0.82-1.95,1.42 c-0.54,0.6-0.95,1.29-1.24,2.08c-0.29,0.79-0.44,1.63-0.44,2.52c0,0.92,0.14,1.78,0.43,2.58c0.28,0.8,0.69,1.49,1.22,2.08 c0.53,0.59,1.17,1.06,1.94,1.39c0.76,0.34,1.61,0.51,2.55,0.51c0.92,0,1.76-0.18,2.51-0.55c0.75-0.37,1.37-0.91,1.87-1.61 L222.55,125.48z" class="st6"/><path d="M227.34,125.99h8.52v2.03h-10.8v-16.31h10.46v2h-8.18v4.88h7.69v1.96h-7.69V125.99z" class="st6"/><path d="M241.37,125.99h7.28v2.03h-9.56v-16.31h2.28V125.99z" class="st6"/><path d="M253.32,128.02h-2.28v-16.31h2.28V128.02z" class="st6"/><path d="M258.14,128.02h-2.53l7.07-16.31h2.07l7,16.31h-2.58l-1.66-4.01h-7.74L258.14,128.02z M260.58,122h6.1 l-3.04-7.65L260.58,122z" class="st6"/><path d="M276.31,128.02h-2.28v-16.31h5.23c0.78,0,1.53,0.08,2.23,0.24c0.71,0.16,1.32,0.42,1.85,0.77 c0.53,0.35,0.95,0.82,1.26,1.39c0.31,0.58,0.46,1.28,0.46,2.11c0,1.2-0.37,2.17-1.11,2.9s-1.69,1.21-2.86,1.41l4.56,7.49h-2.76 l-4.15-7.26h-2.44V128.02z M276.31,118.85h2.63c0.54,0,1.04-0.05,1.5-0.14c0.46-0.09,0.86-0.24,1.21-0.45 c0.35-0.21,0.62-0.48,0.82-0.81c0.2-0.33,0.3-0.74,0.3-1.23c0-0.49-0.1-0.9-0.3-1.23c-0.2-0.33-0.46-0.59-0.79-0.79 c-0.33-0.2-0.72-0.34-1.16-0.43c-0.45-0.08-0.91-0.13-1.41-0.13h-2.79V118.85z" class="st6"/><path d="M290.64,128.02h-2.28v-16.31h2.28V128.02z" class="st6"/><path d="M295.27,124.38c0.12,0.58,0.39,1.07,0.81,1.45c0.41,0.38,0.93,0.58,1.54,0.58c0.49,0,0.89-0.09,1.21-0.28 c0.31-0.18,0.56-0.43,0.75-0.75c0.18-0.31,0.31-0.68,0.39-1.11c0.08-0.42,0.12-0.87,0.12-1.35v-11.22h2.28v11.31 c0,0.57-0.06,1.17-0.18,1.8c-0.12,0.63-0.35,1.21-0.69,1.75c-0.34,0.54-0.81,0.98-1.42,1.34c-0.61,0.35-1.39,0.53-2.34,0.53 c-1.24,0-2.26-0.32-3.04-0.97c-0.78-0.65-1.3-1.47-1.54-2.49L295.27,124.38z" class="st6"/><path d="M306.77,128.02h-2.53l7.07-16.31h2.07l7,16.31h-2.58l-1.66-4.01h-7.74L306.77,128.02z M309.21,122h6.1 l-3.04-7.65L309.21,122z" class="st6"/></g></g></g></switch></svg>